<svg xmlns="http://www.w3.org/2000/svg" viewBox="0 0 198 198"><defs><style>.cls-1{fill:#fff;}.cls-2{fill:#3a3a3a;}.cls-3{fill:#1682fe;}.cls-4{fill:#ff5a5a;}.cls-5{fill:#f4bb3b;}.cls-6{fill:#60d8a4;}</style></defs><g id="Layer_2" data-name="Layer 2"><g id="logo"><circle class="cls-1" cx="99" cy="99" r="99"/><path class="cls-2" d="M156.83,85.66V59H143.48V45.62H116.79V32.28H90.1V45.62H63.42V59H50.07V139H63.41v13.35H90.1v13.34h26.68V152.38h26.7V139h13.35V112.34H130.14v13.35H116.79V139H90.1V125.69H76.76V72.31H90.1V59h26.69V72.31h13.35V85.66Z"/><rect class="cls-3" x="121.24" y="72.32" width="8.9" height="13.34"/><rect class="cls-3" x="107.89" y="58.97" width="8.9" height="13.34"/><rect class="cls-3" x="81.21" y="32.28" width="8.9" height="13.34"/><rect class="cls-4" x="116.8" y="112.35" width="13.33" height="13.35"/><rect class="cls-4" x="107.9" y="125.69" width="8.9" height="13.34"/><rect class="cls-4" x="81.2" y="152.38" width="8.9" height="13.34"/><rect class="cls-5" x="54.51" y="139.03" width="8.9" height="13.34"/><rect class="cls-5" x="41.17" y="99" width="8.9" height="40.03"/><rect class="cls-6" x="41.17" y="58.97" width="8.9" height="40.03"/><rect class="cls-3" x="54.52" y="45.63" width="8.9" height="13.34"/></g></g></svg>